<svg width="1125" height="832" viewBox="0 0 1125 832" fill="none" xmlns="http://www.w3.org/2000/svg">
<g filter="url(#filter0_f_1_6)">
<path d="M586.133 555.85C266.56 422.095 694.094 259.332 753.601 2C701.956 -130.355 511.268 128.399 451.297 125.509L358.601 47.5L-107.703 -117C-141.497 -80.169 -44.6504 169.997 -85.2031 196.748C-125.756 223.499 -97.418 495.515 -107.703 527.5C-73.9092 572.085 102.113 755.319 126.797 785.559C157.652 823.359 595.139 996.061 683.297 1029.5C771.455 1062.94 643.436 813.182 702.942 785.559C762.449 757.936 753.633 804.459 788.896 785.559C824.159 766.659 905.706 689.605 586.133 555.85Z" fill="#005B70"/>
</g>
<defs>
<filter id="filter0_f_1_6" x="-415" y="-417" width="1539.8" height="1749.57" filterUnits="userSpaceOnUse" color-interpolation-filters="sRGB">
<feFlood flood-opacity="0" result="BackgroundImageFix"/>
<feBlend mode="normal" in="SourceGraphic" in2="BackgroundImageFix" result="shape"/>
<feGaussianBlur stdDeviation="150" result="effect1_foregroundBlur_1_6"/>
</filter>
</defs>
</svg>
