{
  "accessors": [
    {
      "bufferView": 3,
      "componentType": 5126,
      "count": 1525,
      "max": [
        4.999999523162842,
        5.0,
        4.999999523162842
      ],
      "min": [
        -4.999999523162842,
        -5.0,
        -4.408360481262207
      ],
      "type": "VEC3"
    },
    {
      "bufferView": 3,
      "byteOffset": 18300,
      "componentType": 5126,
      "count": 1525,
      "max": [
        0.9997814893722534,
        0.9996540546417236,
        1.0
      ],
      "min": [
        -0.9997814893722534,
        -0.9996540546417236,
        -0.8706538677215576
      ],
      "type": "VEC3"
    },
    {
      "bufferView": 2,
      "componentType": 5126,
      "count": 1525,
      "max": [
        0.9998999834060669,
        0.9998999834060669
      ],
      "min": [
        9.998001041822135e-05,
        9.998001041822135e-05
      ],
      "type": "VEC2"
    },
    {
      "bufferView": 1,
      "componentType": 5125,
      "count": 8640,
      "type": "SCALAR"
    },
    {
      "bufferView": 5,
      "componentType": 5126,
      "count": 3,
      "max": [
        100.0,
        0.0,
        0.0,
        0.0,
        0.0,
        100.0,
        0.0,
        0.0,
        0.0,
        0.0,
        100.0,
        0.0,
        0.0,
        0.0,
        0.0,
        1.0
      ],
      "min": [
        1.0,
        0.0,
        0.0,
        0.0,
        0.0,
        1.0,
        0.0,
        0.0,
        0.0,
        0.0,
        1.0,
        0.0,
        0.0,
        0.0,
        0.0,
        1.0
      ],
      "type": "MAT4"
    },
    {
      "bufferView": 0,
      "componentType": 5123,
      "count": 1525,
      "type": "VEC4"
    },
    {
      "bufferView": 4,
      "componentType": 5126,
      "count": 1525,
      "max": [
        1.0,
        0.0,
        0.0,
        0.0
      ],
      "min": [
        1.0,
        0.0,
        0.0,
        0.0
      ],
      "type": "VEC4"
    },
    {
      "bufferView": 6,
      "componentType": 5126,
      "count": 4,
      "max": [
        4.166666507720947
      ],
      "min": [
        0.0416666679084301
      ],
      "type": "SCALAR"
    },
    {
      "bufferView": 7,
      "componentType": 5126,
      "count": 4,
      "max": [
        1.0,
        1.0,
        1.0
      ],
      "min": [
        0.9999999403953552,
        1.0,
        0.9999999403953552
      ],
      "type": "VEC3"
    },
    {
      "bufferView": 6,
      "byteOffset": 16,
      "componentType": 5126,
      "count": 198,
      "max": [
        4.166666507720947
      ],
      "min": [
        0.0416666679084301
      ],
      "type": "SCALAR"
    },
    {
      "bufferView": 8,
      "componentType": 5126,
      "count": 198,
      "max": [
        0.7071068286895752,
        0.7071067690849304,
        0.7071067690849304,
        0.7071067094802856
      ],
      "min": [
        -0.5,
        -0.49684855341911316,
        -0.49684855341911316,
        -0.5
      ],
      "type": "VEC4"
    }
  ],
  "animations": [
    {
      "channels": [
        {
          "sampler": 0,
          "target": {
            "node": 7,
            "path": "scale"
          }
        },
        {
          "sampler": 1,
          "target": {
            "node": 7,
            "path": "rotation"
          }
        }
      ],
      "name": "Scene",
      "samplers": [
        {
          "input": 7,
          "interpolation": "LINEAR",
          "output": 8
        },
        {
          "input": 9,
          "interpolation": "LINEAR",
          "output": 10
        }
      ]
    }
  ],
  "asset": {
    "extras": {
      "author": "n- (https://sketchfab.com/n-)",
      "license": "CC-BY-4.0 (http://creativecommons.org/licenses/by/4.0/)",
      "source": "https://sketchfab.com/3d-models/twisted-sphere-cb17b67a8dca4c9db3d71d52e5701210",
      "title": "Twisted Sphere"
    },
    "generator": "Sketchfab-12.66.0",
    "version": "2.0"
  },
  "bufferViews": [
    {
      "buffer": 0,
      "byteLength": 12200,
      "byteStride": 8,
      "name": "shortBufferViews",
      "target": 34962
    },
    {
      "buffer": 0,
      "byteLength": 34560,
      "byteOffset": 12200,
      "name": "floatBufferViews",
      "target": 34963
    },
    {
      "buffer": 0,
      "byteLength": 12200,
      "byteOffset": 46760,
      "byteStride": 8,
      "name": "floatBufferViews",
      "target": 34962
    },
    {
      "buffer": 0,
      "byteLength": 36600,
      "byteOffset": 58960,
      "byteStride": 12,
      "name": "floatBufferViews",
      "target": 34962
    },
    {
      "buffer": 0,
      "byteLength": 24400,
      "byteOffset": 95560,
      "byteStride": 16,
      "name": "floatBufferViews",
      "target": 34962
    },
    {
      "buffer": 0,
      "byteLength": 192,
      "byteOffset": 119960,
      "name": "floatBufferViews"
    },
    {
      "buffer": 0,
      "byteLength": 808,
      "byteOffset": 120152,
      "name": "floatBufferViews"
    },
    {
      "buffer": 0,
      "byteLength": 48,
      "byteOffset": 120960,
      "byteStride": 12,
      "name": "floatBufferViews"
    },
    {
      "buffer": 0,
      "byteLength": 3168,
      "byteOffset": 121008,
      "byteStride": 16,
      "name": "floatBufferViews"
    }
  ],
  "buffers": [
    {
      "byteLength": 124176,
      "uri": "scene.bin"
    }
  ],
  "extensionsUsed": [
    "KHR_materials_unlit"
  ],
  "images": [
    {
      "uri": "textures/TwistedSphere_mat_baseColor.png"
    }
  ],
  "materials": [
    {
      "doubleSided": true,
      "extensions": {
        "KHR_materials_unlit": {}
      },
      "name": "TwistedSphere_mat",
      "pbrMetallicRoughness": {
        "baseColorTexture": {
          "index": 0
        },
        "metallicFactor": 0.0
      }
    }
  ],
  "meshes": [
    {
      "name": "TwistedSphere_TwistedSphere_mat_0",
      "primitives": [
        {
          "attributes": {
            "JOINTS_0": 5,
            "NORMAL": 1,
            "POSITION": 0,
            "TEXCOORD_0": 2,
            "WEIGHTS_0": 6
          },
          "indices": 3,
          "material": 0,
          "mode": 4
        }
      ]
    }
  ],
  "nodes": [
    {
      "children": [
        1
      ],
      "matrix": [
        0.0018895277753472328,
        0.0,
        0.0,
        0.0,
        0.0,
        4.195594483718496e-19,
        -0.0018895277753472328,
        0.0,
        0.0,
        0.0018895277753472328,
        4.195594483718496e-19,
        0.0,
        0.0,
        0.0,
        0.0,
        1.0
      ],
      "name": "Sketchfab_model"
    },
    {
      "children": [
        2
      ],
      "matrix": [
        1.0,
        0.0,
        0.0,
        0.0,
        0.0,
        0.0,
        1.0,
        0.0,
        0.0,
        -1.0,
        0.0,
        0.0,
        0.0,
        0.0,
        0.0,
        1.0
      ],
      "name": "TwistedSphere.fbx"
    },
    {
      "children": [
        3
      ],
      "name": "Object_2"
    },
    {
      "children": [
        4,
        11
      ],
      "name": "RootNode"
    },
    {
      "children": [
        5
      ],
      "name": "TwistedSphere_arm",
      "rotation": [
        -0.7071068286895752,
        0.0,
        0.0,
        0.7071067094802856
      ],
      "scale": [
        100.0,
        100.0,
        100.0
      ]
    },
    {
      "children": [
        6,
        10,
        9
      ],
      "name": "Object_5"
    },
    {
      "children": [
        7
      ],
      "name": "_rootJoint"
    },
    {
      "children": [
        8
      ],
      "name": "Bone_00",
      "rotation": [
        -0.37888672947883606,
        0.5970300436019897,
        0.597029983997345,
        -0.37888672947883606
      ]
    },
    {
      "name": "Bone_end_01",
      "rotation": [
        0.0,
        2.7755575615628914e-17,
        0.0,
        1.0
      ],
      "translation": [
        0.0,
        5.0,
        0.0
      ]
    },
    {
      "matrix": [
        100.0,
        0.0,
        0.0,
        0.0,
        0.0,
        6.123233995736766e-15,
        -100.0,
        0.0,
        0.0,
        100.0,
        6.123233995736766e-15,
        0.0,
        0.0,
        0.0,
        0.0,
        1.0
      ],
      "name": "Object_9"
    },
    {
      "mesh": 0,
      "name": "Object_10",
      "skin": 0
    },
    {
      "name": "TwistedSphere",
      "rotation": [
        -0.7071068286895752,
        0.0,
        0.0,
        0.7071067094802856
      ],
      "scale": [
        100.0,
        100.0,
        100.0
      ]
    }
  ],
  "samplers": [
    {
      "magFilter": 9729,
      "minFilter": 9987,
      "wrapS": 10497,
      "wrapT": 10497
    }
  ],
  "scene": 0,
  "scenes": [
    {
      "name": "Sketchfab_Scene",
      "nodes": [
        0
      ]
    }
  ],
  "skins": [
    {
      "inverseBindMatrices": 4,
      "joints": [
        6,
        7,
        8
      ],
      "skeleton": 6
    }
  ],
  "textures": [
    {
      "sampler": 0,
      "source": 0
    }
  ]
}
